<?xml version="1.0" encoding="UTF-8" standalone="no"?>
<!-- Created with Inkscape (http://www.inkscape.org/) -->

<svg
   xmlns:dc="http://purl.org/dc/elements/1.1/"
   xmlns:cc="http://creativecommons.org/ns#"
   xmlns:rdf="http://www.w3.org/1999/02/22-rdf-syntax-ns#"
   xmlns:svg="http://www.w3.org/2000/svg"
   xmlns="http://www.w3.org/2000/svg"
   xmlns:sodipodi="http://sodipodi.sourceforge.net/DTD/sodipodi-0.dtd"
   xmlns:inkscape="http://www.inkscape.org/namespaces/inkscape"
   width="10.721107mm"
   height="8.2013636mm"
   viewBox="0 0 10.721107 8.2013625"
   version="1.1"
   id="svg5889"
   inkscape:version="0.92.3 (2405546, 2018-03-11)"
   sodipodi:docname="pimiento.svg">
  <defs
     id="defs5883" />
  <sodipodi:namedview
     id="base"
     pagecolor="#ffffff"
     bordercolor="#666666"
     borderopacity="1.0"
     inkscape:pageopacity="0.0"
     inkscape:pageshadow="2"
     inkscape:zoom="3.06"
     inkscape:cx="91.810206"
     inkscape:cy="-11.652062"
     inkscape:document-units="mm"
     inkscape:current-layer="layer1"
     showgrid="false"
     fit-margin-top="1"
     fit-margin-bottom="1"
     fit-margin-right="1"
     fit-margin-left="1"
     inkscape:window-width="1853"
     inkscape:window-height="1025"
     inkscape:window-x="67"
     inkscape:window-y="27"
     inkscape:window-maximized="1" />
  <metadata
     id="metadata5886">
    <rdf:RDF>
      <cc:Work
         rdf:about="">
        <dc:format>image/svg+xml</dc:format>
        <dc:type
           rdf:resource="http://purl.org/dc/dcmitype/StillImage" />
        <dc:title></dc:title>
      </cc:Work>
    </rdf:RDF>
  </metadata>
  <g
     inkscape:label="Capa 1"
     inkscape:groupmode="layer"
     id="layer1"
     transform="translate(-81.541884,-110.17835)">
    <g
       transform="matrix(0.35277777,0,0,-0.35277777,38.696235,223.14569)"
       id="g8201">
      <g
         transform="translate(133.5234,300.271)"
         id="g1930">
        <path
           inkscape:connector-curvature="0"
           id="path1932"
           style="fill:#86af3f;fill-opacity:1;fill-rule:nonzero;stroke:none"
           d="m 0,0 v 0 c 0,0 0.048,0.009 0.141,0.029 0.644,0.128 1.328,0.298 2.064,0.526 0.814,0.251 1.58,0.534 2.302,0.841 3.366,1.333 8.156,4.313 10.185,8.306 -0.567,-0.093 -1.594,-0.58 -2.12,-0.32 -1.064,-0.621 -2.452,-0.479 -3.364,0.434 -0.913,0.912 -1.055,2.3 -0.434,3.365 -0.23,0.463 -0.32,0.975 -0.276,1.48 C 7.269,14.071 6.003,13.159 4.856,11.971 4.25,11.344 3.724,10.687 3.281,10.022 2.879,9.545 2.475,9.017 2.068,8.43" />
      </g>
      <g
         transform="translate(145.019,309.4478)"
         id="g1934">
        <path
           inkscape:connector-curvature="0"
           id="path1936"
           style="fill:#95c03d;fill-opacity:1;fill-rule:nonzero;stroke:none"
           d="M 0,0 C -1.064,-0.621 -2.452,-0.479 -3.364,0.434 -4.276,1.347 -4.419,2.734 -3.798,3.798 -4.027,4.263 -4.119,4.775 -4.074,5.279 -5.302,4.689 -6.569,3.778 -7.715,2.59 -8.321,1.962 -8.848,1.306 -9.292,0.64 c -0.399,-0.476 -0.805,-1.005 -1.211,-1.592 -3.957,-5.725 -8.674,-4.411 -8.674,-4.411 0,0 -0.923,0.551 -1.472,-0.372 -0.501,-0.839 1.149,-4.962 8.077,-3.647 v -10e-4 c 0,0 0.049,0.01 0.142,0.03 0.644,0.129 1.328,0.299 2.063,0.525 0.815,0.253 1.581,0.536 2.302,0.843 3.367,1.331 7.719,3.741 9.75,7.734 C 1.117,-0.344 0.526,-0.26 0,0" />
      </g>
      <g
         transform="translate(148.0703,313.8115)"
         id="g1938">
        <path
           inkscape:connector-curvature="0"
           id="path1940"
           style="fill:#4f7837;fill-opacity:1;fill-rule:nonzero;stroke:none"
           d="m 0,0 c -0.513,0.453 -1.147,0.682 -1.783,0.695 -0.09,0.629 -0.394,1.231 -0.908,1.684 -1.15,1.018 -2.906,0.91 -3.924,-0.24 -0.448,-0.508 -0.677,-1.134 -0.694,-1.762 -0.013,-0.505 0.11,-1.013 0.367,-1.461 -0.556,-1.101 -0.329,-2.478 0.638,-3.332 0.968,-0.855 2.36,-0.912 3.385,-0.227 0.541,-0.228 1.136,-0.274 1.696,-0.148 0.547,0.125 1.063,0.414 1.463,0.866 C 1.257,-2.775 1.15,-1.018 0,0" />
      </g>
      <g
         transform="translate(148.0703,313.8115)"
         id="g1942">
        <path
           inkscape:connector-curvature="0"
           id="path1944"
           style="fill:#3a5c2b;fill-opacity:1;fill-rule:nonzero;stroke:none"
           d="m 0,0 c -0.21,0.185 -0.442,0.328 -0.683,0.438 0.225,-0.446 0.367,-0.941 0.399,-1.465 0.099,-1.625 -0.877,-3.102 -2.301,-3.73 0.446,-0.123 0.915,-0.135 1.362,-0.034 0.547,0.125 1.063,0.414 1.463,0.866 C 1.257,-2.775 1.15,-1.018 0,0" />
      </g>
      <g
         transform="translate(146.7104,313.5298)"
         id="g1946">
        <path
           inkscape:connector-curvature="0"
           id="path1948"
           style="fill:#5b8d3e;fill-opacity:1;fill-rule:nonzero;stroke:none"
           d="M 0,0 C -0.354,-0.399 -0.962,-0.436 -1.361,-0.083 -1.76,0.269 -1.797,0.878 -1.444,1.277 L 0.388,3.533 C 0.74,3.931 1.35,3.969 1.748,3.616 2.147,3.263 2.184,2.653 1.832,2.255 Z" />
      </g>
      <g
         transform="translate(136.8247,310.9116)"
         id="g1950">
        <path
           inkscape:connector-curvature="0"
           id="path1952"
           style="fill:#a9cf41;fill-opacity:1;fill-rule:nonzero;stroke:none"
           d="M 0,0 C -0.946,-1.145 -1.517,-2.235 -1.273,-2.436 -1.03,-2.637 -0.066,-1.872 0.88,-0.727 1.827,0.417 2.396,1.508 2.155,1.708 1.911,1.91 0.946,1.146 0,0" />
      </g>
      <g
         transform="translate(127.9473,303.4805)"
         id="g1954">
        <path
           inkscape:connector-curvature="0"
           id="path1956"
           style="fill:#a9cf41;fill-opacity:1;fill-rule:nonzero;stroke:none"
           d="m 0,0 c -1.545,-0.23 -2.608,0.083 -2.549,-0.276 0.035,-0.333 1.203,-1.151 2.75,-0.85 C 1.747,-0.85 2.81,0.379 2.751,0.641 2.717,0.929 1.547,0.204 0,0" />
      </g>
    </g>
  </g>
</svg>
