<?xml version="1.0" ?><svg enable-background="new 0 0 64 64" id="Filled_Outline_1_" version="1.1" viewBox="0 0 64 64" xml:space="preserve" xmlns="http://www.w3.org/2000/svg" xmlns:xlink="http://www.w3.org/1999/xlink"><title/><desc/><g><g><circle cx="25" cy="39" fill="#F36F21" r="22"/><path d="M47,39c0,10.35-7.15,19.03-16.78,21.37C25.81,56.72,23,51.19,23,45c0-10.71,8.42-19.45,19-19.97    C45.13,28.83,47,33.69,47,39z" fill="#F15822"/><path d="M22,28c0-3-3.7-6.229-8-5c-7,2-9.852,13.766-5,17c3,2,2.528-7,7-7C18,33,22,32.123,22,28z" fill="#F58320"/><path d="M46.86,36.5c-1.052,9.31-7.932,16.84-16.895,18.913C26.894,52.185,25,47.812,25,43    c0-9.32,7.08-16.99,16.16-17.91C30.98,26.01,23,34.57,23,45c0,4.042,1.196,7.804,3.268,10.94C25.846,55.964,25.428,56,25,56    C13.7,56,4.38,47.47,3.14,36.5C3.05,37.32,3,38.15,3,39c0,12.15,9.85,22,22,22s22-9.85,22-22C47,38.15,46.95,37.32,46.86,36.5z     M30,21.5c0-2.485-2.239-4.5-5-4.5s-5,2.015-5,4.5s2.239,4.5,5,4.5S30,23.985,30,21.5z" fill="#F15822"/><circle cx="43" cy="43" fill="#FEDEBE" r="18"/><path d="M37,3h-4c-5.523,0-10,4.477-10,10v0h4C32.523,13,37,8.523,37,3L37,3z" fill="#009245"/><path d="M37,3c0,2.24-0.74,4.31-1.99,5.98c0,0.01,0,0.01-0.01,0.02s-0.01,0.01-0.02,0.02    C32.77,11.22,30.1,12.1,29,11c-1.1-1.1-0.21-3.79,2-6c0.91-0.91,1.89-1.59,2.82-2H37z" fill="#009245"/><path d="M43,31.174V43l-8.362-8.362c-0.871-0.871-0.764-2.325,0.238-3.04c1.689-1.205,3.656-2.045,5.787-2.403    C41.884,28.989,43,29.935,43,31.174z M31.597,34.876c-1.205,1.689-2.045,3.656-2.403,5.787C28.989,41.884,29.935,43,31.174,43H43    l-8.362-8.362C33.767,33.767,32.312,33.873,31.597,34.876z M51.124,31.597c-1.689-1.205-3.656-2.045-5.787-2.403    C44.116,28.989,43,29.935,43,31.174V43l8.362-8.362C52.233,33.767,52.127,32.312,51.124,31.597z M56.806,40.662    c-0.358-2.131-1.198-4.098-2.403-5.787c-0.715-1.002-2.17-1.109-3.04-0.238L43,43h11.826C56.065,43,57.011,41.884,56.806,40.662z     M43,43l8.362,8.362c0.871,0.871,2.325,0.764,3.04-0.238c1.205-1.689,2.045-3.656,2.403-5.787C57.011,44.116,56.065,43,54.826,43    H43z M29.194,45.338c0.358,2.131,1.198,4.098,2.403,5.787c0.715,1.002,2.17,1.109,3.04,0.238L43,43H31.174    C29.935,43,28.989,44.116,29.194,45.338z M45.338,56.806c2.131-0.358,4.098-1.198,5.787-2.403c1.002-0.715,1.109-2.17,0.238-3.04    L43,43v11.826C43,56.065,44.116,57.011,45.338,56.806z M34.876,54.403c1.689,1.205,3.656,2.045,5.787,2.403    C41.884,57.011,43,56.065,43,54.826V43l-8.362,8.362C33.767,52.233,33.873,53.688,34.876,54.403z" fill="#EA3C55"/><path d="M14,13c4.679,0,9.41,3.571,9.949,8.136C24.008,21.634,24.445,22,24.947,22h0    c0.594,0,1.056-0.509,1.015-1.101C25.496,14.234,20.809,9,14,9V13z" fill="#22B573"/><path d="M37,3c0,2.24-0.74,4.31-1.99,5.98c0,0.01,0,0.01-0.01,0.02s-0.01,0.01-0.02,0.02    C32.77,11.22,30.1,12.1,29,11c-1.1-1.1-0.21-3.79,2-6c0.91-0.91,1.89-1.59,2.82-2H37z" fill="#39B54A"/><path d="M41,38c-1.105,0-2-1.791-2-4s0.895-4,2-4s2,1.791,2,4S42.105,38,41,38z M47,53c0-2.209-0.895-4-2-4    s-2,1.791-2,4s0.895,4,2,4S47,55.209,47,53z M36.121,39.121c0.781-0.781,0.464-2.364-0.707-3.536    c-1.172-1.172-2.754-1.488-3.536-0.707c-0.781,0.781-0.464,2.364,0.707,3.536C33.757,39.586,35.34,39.902,36.121,39.121z     M53.414,38.414c1.172-1.172,1.488-2.754,0.707-3.536c-0.781-0.781-2.364-0.464-3.536,0.707c-1.172,1.172-1.488,2.754-0.707,3.536    C50.66,39.902,52.243,39.586,53.414,38.414z M38,48c1.105-1.105,1.552-2.448,1-3s-1.895-0.105-3,1s-1.552,2.448-1,3    S36.895,49.105,38,48z M38,52c1.105-1.105,1.552-2.448,1-3s-1.895-0.105-3,1s-1.552,2.448-1,3S36.895,53.105,38,52z M50.5,35.5    c1.105-1.105,1.552-2.448,1-3s-1.895-0.105-3,1s-1.552,2.448-1,3S49.395,36.605,50.5,35.5z M54,46.414    c1.562,0,2.828-0.633,2.828-1.414S55.562,43.586,54,43.586S51.172,44.219,51.172,45S52.438,46.414,54,46.414z" fill="#FF6F77"/></g><path d="M25,60C13.42,60,4,50.58,4,39c0-10.341,7.636-19.195,17.812-20.747c0.609,0.926,1.02,1.943,1.144,3   C23.073,22.249,23.929,23,24.947,23c0.556,0,1.092-0.233,1.472-0.641c0.383-0.411,0.581-0.969,0.541-1.53   c-0.067-0.96-0.214-1.882-0.43-2.762c4.326,0.318,8.479,1.963,11.833,4.733l1.273-1.542c-3.883-3.207-8.744-5.029-13.771-5.22   c-0.291-0.719-0.635-1.399-1.027-2.038H27c6.065,0,11-4.935,11-11c0-0.552-0.447-1-1-1h-4c-5.353,0-9.819,3.845-10.796,8.917   C20.005,9.066,17.184,8,14,8c-0.552,0-1,0.448-1,1v4c0,0.552,0.448,1,1,1c2.325,0,4.607,0.989,6.293,2.501   C9.763,18.698,2,28.091,2,39c0,12.682,10.318,23,23,23c1.765,0,3.523-0.201,5.227-0.597l-0.453-1.948   C28.219,59.817,26.613,60,25,60z M33,4h2.944c-0.499,4.494-4.32,8-8.944,8h-2.945C24.554,7.506,28.375,4,33,4z M15,10.042   c5.499,0.472,9.537,4.834,9.942,10.976c-0.541-4.583-4.979-8.499-9.942-8.971V10.042z M43,24c-10.477,0-19,8.523-19,19   s8.523,19,19,19s19-8.523,19-19S53.477,24,43,24z M43,60c-9.374,0-17-7.626-17-17s7.626-17,17-17s17,7.626,17,17S52.374,60,43,60z    M57.052,43c0.022-0.024,0.048-0.041,0.069-0.066c0.573-0.677,0.817-1.565,0.671-2.437v0c-0.374-2.222-1.265-4.366-2.575-6.202   c-0.509-0.713-1.303-1.163-2.18-1.236c-0.033-0.003-0.065,0.004-0.098,0.002c-0.002-0.033,0.005-0.064,0.003-0.097   c-0.072-0.877-0.523-1.672-1.236-2.181c-1.839-1.312-3.982-2.203-6.201-2.575c-0.87-0.147-1.761,0.097-2.438,0.67   c-0.025,0.021-0.042,0.048-0.066,0.07c-0.024-0.022-0.042-0.049-0.066-0.07c-0.678-0.573-1.563-0.816-2.438-0.67   c-2.219,0.373-4.363,1.263-6.201,2.575c-0.713,0.508-1.164,1.303-1.236,2.181c-0.003,0.033,0.004,0.065,0.003,0.097   c-0.033,0.002-0.065-0.005-0.098-0.002c-0.877,0.073-1.671,0.523-2.18,1.235c-1.312,1.838-2.202,3.983-2.575,6.202   c-0.146,0.872,0.098,1.76,0.67,2.438c0.021,0.025,0.048,0.042,0.069,0.066c-0.022,0.024-0.048,0.041-0.069,0.066   c-0.572,0.677-0.816,1.565-0.67,2.437c0.373,2.22,1.263,4.364,2.575,6.203c0.509,0.712,1.303,1.163,2.18,1.235   c0.033,0.003,0.065,0.002,0.098,0.004c0.002,0.031-0.005,0.06-0.002,0.091c0.072,0.877,0.523,1.672,1.236,2.181   c1.839,1.312,3.982,2.203,6.201,2.575c0.166,0.028,0.333,0.042,0.499,0.042c0.704,0,1.391-0.248,1.938-0.711   c0.025-0.021,0.042-0.048,0.066-0.07c0.024,0.022,0.042,0.049,0.066,0.07c0.548,0.463,1.233,0.711,1.938,0.711   c0.166,0,0.332-0.014,0.499-0.042c2.219-0.373,4.363-1.263,6.201-2.575c0.713-0.508,1.164-1.303,1.236-2.181   c0.003-0.031-0.004-0.06-0.002-0.091c0.033-0.002,0.065-0.001,0.098-0.004c0.877-0.073,1.671-0.523,2.179-1.235   c1.312-1.836,2.202-3.98,2.576-6.203c0.146-0.872-0.098-1.76-0.671-2.437C57.1,43.041,57.073,43.024,57.052,43z M52.871,35.052   c0.17,0.014,0.49,0.086,0.718,0.405c1.136,1.59,1.907,3.448,2.23,5.372c0.067,0.398-0.112,0.681-0.225,0.814   C55.399,41.873,55.127,42,54.826,42h-9.412l6.655-6.655C52.279,35.134,52.572,35.029,52.871,35.052z M44.357,30.405   c0.113-0.096,0.334-0.239,0.643-0.239c0.055,0,0.112,0.004,0.172,0.015c1.922,0.323,3.778,1.094,5.371,2.23   c0.32,0.228,0.392,0.548,0.405,0.718c0.024,0.298-0.082,0.59-0.293,0.801L44,40.586v-9.413C44,30.873,44.127,30.6,44.357,30.405z    M35.052,33.129c0.014-0.17,0.085-0.49,0.405-0.718c1.593-1.137,3.449-1.908,5.371-2.23c0.06-0.01,0.117-0.015,0.172-0.015   c0.309,0,0.529,0.144,0.643,0.239C41.873,30.6,42,30.873,42,31.173v9.412l-6.655-6.656C35.134,33.72,35.027,33.428,35.052,33.129z    M30.405,41.642c-0.112-0.133-0.292-0.416-0.224-0.814c0.323-1.922,1.094-3.779,2.23-5.372c0.228-0.319,0.547-0.391,0.718-0.405   c0.295-0.023,0.59,0.082,0.802,0.293L40.586,42h-9.413C30.873,42,30.6,41.873,30.405,41.642z M33.129,50.948   c-0.17-0.014-0.49-0.086-0.718-0.405c-1.136-1.592-1.908-3.45-2.23-5.372v0c-0.067-0.398,0.112-0.681,0.224-0.813   C30.6,44.127,30.873,44,31.173,44h9.412l-6.655,6.655C33.72,50.866,33.424,50.968,33.129,50.948z M41.643,55.595   c-0.134,0.112-0.422,0.29-0.814,0.225c-1.922-0.323-3.778-1.094-5.371-2.23c-0.32-0.228-0.392-0.548-0.405-0.718   c-0.024-0.298,0.082-0.59,0.293-0.801L42,45.414v9.413C42,55.127,41.873,55.4,41.643,55.595z M50.543,53.589   c-1.593,1.137-3.449,1.908-5.371,2.23c-0.394,0.068-0.681-0.112-0.814-0.225C44.127,55.4,44,55.127,44,54.827v-9.412l6.655,6.656   c0.211,0.21,0.317,0.502,0.293,0.801C50.935,53.041,50.863,53.361,50.543,53.589z M55.819,45.171   c-0.323,1.924-1.095,3.782-2.231,5.373c-0.227,0.318-0.547,0.39-0.717,0.404c-0.299,0.02-0.591-0.083-0.802-0.293L45.414,44h9.412   c0.301,0,0.573,0.127,0.769,0.357C55.707,44.491,55.887,44.774,55.819,45.171z M28.667,22.6C28.888,22.095,29,21.557,29,21h2   c0,0.834-0.168,1.642-0.5,2.4L28.667,22.6z M25,25c0.874,0,1.704-0.276,2.4-0.799l1.201,1.599C27.556,26.585,26.311,27,25,27   c-3.309,0-6-2.691-6-6h2C21,23.206,22.794,25,25,25z" fill="#28284B"/></g></svg>