<?xml version="1.0" encoding="UTF-8" standalone="no"?>
<!-- Created with Inkscape (http://www.inkscape.org/) -->

<svg
   width="64pt"
   height="64pt"
   viewBox="0 0 22.577778 22.577778"
   version="1.1"
   id="svg831"
   inkscape:version="1.1.1 (3bf5ae0d25, 2021-09-20)"
   sodipodi:docname="Ex.svg"
   inkscape:export-filename="C:\Users\User\Desktop\CARLOS PROJECT\4. APRIL 1\Done\9 - Pepper.png"
   inkscape:export-xdpi="576"
   inkscape:export-ydpi="576"
   xmlns:inkscape="http://www.inkscape.org/namespaces/inkscape"
   xmlns:sodipodi="http://sodipodi.sourceforge.net/DTD/sodipodi-0.dtd"
   xmlns="http://www.w3.org/2000/svg"
   xmlns:svg="http://www.w3.org/2000/svg"
   xmlns:rdf="http://www.w3.org/1999/02/22-rdf-syntax-ns#"
   xmlns:cc="http://creativecommons.org/ns#"
   xmlns:dc="http://purl.org/dc/elements/1.1/">
  <defs
     id="defs825">
    <pattern
       id="EMFhbasepattern"
       patternUnits="userSpaceOnUse"
       width="6"
       height="6"
       x="0"
       y="0" />
    <pattern
       id="EMFhbasepattern-9"
       patternUnits="userSpaceOnUse"
       width="6"
       height="6"
       x="0"
       y="0" />
    <pattern
       id="EMFhbasepattern-0"
       patternUnits="userSpaceOnUse"
       width="6"
       height="6"
       x="0"
       y="0" />
    <pattern
       id="EMFhbasepattern-7"
       patternUnits="userSpaceOnUse"
       width="6"
       height="6"
       x="0"
       y="0" />
    <pattern
       id="EMFhbasepattern-2"
       patternUnits="userSpaceOnUse"
       width="6"
       height="6"
       x="0"
       y="0" />
    <pattern
       id="EMFhbasepattern-98"
       patternUnits="userSpaceOnUse"
       width="6"
       height="6"
       x="0"
       y="0" />
    <pattern
       id="EMFhbasepattern-6"
       patternUnits="userSpaceOnUse"
       width="6"
       height="6"
       x="0"
       y="0" />
    <pattern
       id="EMFhbasepattern-01"
       patternUnits="userSpaceOnUse"
       width="6"
       height="6"
       x="0"
       y="0" />
    <pattern
       id="EMFhbasepattern-07"
       patternUnits="userSpaceOnUse"
       width="6"
       height="6"
       x="0"
       y="0" />
    <pattern
       id="EMFhbasepattern-8"
       patternUnits="userSpaceOnUse"
       width="6"
       height="6"
       x="0"
       y="0" />
    <pattern
       id="EMFhbasepattern-4"
       patternUnits="userSpaceOnUse"
       width="6"
       height="6"
       x="0"
       y="0" />
    <pattern
       id="EMFhbasepattern-40"
       patternUnits="userSpaceOnUse"
       width="6"
       height="6"
       x="0"
       y="0" />
    <pattern
       id="EMFhbasepattern-08"
       patternUnits="userSpaceOnUse"
       width="6"
       height="6"
       x="0"
       y="0" />
    <pattern
       id="EMFhbasepattern-04"
       patternUnits="userSpaceOnUse"
       width="6"
       height="6"
       x="0"
       y="0" />
    <pattern
       id="EMFhbasepattern-014"
       patternUnits="userSpaceOnUse"
       width="6"
       height="6"
       x="0"
       y="0" />
    <pattern
       id="EMFhbasepattern-27"
       patternUnits="userSpaceOnUse"
       width="6"
       height="6"
       x="0"
       y="0" />
    <pattern
       id="EMFhbasepattern-09"
       patternUnits="userSpaceOnUse"
       width="6"
       height="6"
       x="0"
       y="0" />
    <pattern
       id="EMFhbasepattern-5"
       patternUnits="userSpaceOnUse"
       width="6"
       height="6"
       x="0"
       y="0" />
    <pattern
       id="EMFhbasepattern-018"
       patternUnits="userSpaceOnUse"
       width="6"
       height="6"
       x="0"
       y="0" />
  </defs>
  <sodipodi:namedview
     id="base"
     pagecolor="#ffffff"
     bordercolor="#666666"
     borderopacity="1.0"
     inkscape:pageopacity="0.0"
     inkscape:pageshadow="2"
     inkscape:zoom="6.4882571"
     inkscape:cx="31.749667"
     inkscape:cy="42.615451"
     inkscape:document-units="pt"
     inkscape:current-layer="layer1"
     showgrid="false"
     units="pt"
     inkscape:window-width="1920"
     inkscape:window-height="1001"
     inkscape:window-x="-9"
     inkscape:window-y="-9"
     inkscape:window-maximized="1"
     inkscape:pagecheckerboard="true"
     inkscape:showpageshadow="false"
     inkscape:object-paths="true"
     inkscape:snap-intersection-paths="true"
     inkscape:snap-smooth-nodes="true"
     inkscape:snap-midpoints="true"
     showguides="true"
     inkscape:snap-bbox="true"
     inkscape:bbox-nodes="true"
     inkscape:snap-nodes="false"
     inkscape:snap-global="true"
     inkscape:lockguides="true">
    <inkscape:grid
       type="xygrid"
       id="grid1378" />
    <sodipodi:guide
       position="0.97013831,21.607643"
       orientation="78.000048,0"
       id="guide1380"
       inkscape:locked="true" />
    <sodipodi:guide
       position="0.97013831,0.97013129"
       orientation="0,78.000005"
       id="guide1382"
       inkscape:locked="true" />
    <sodipodi:guide
       position="21.607639,0.97013129"
       orientation="-78.000048,0"
       id="guide1384"
       inkscape:locked="true" />
    <sodipodi:guide
       position="21.607639,21.607643"
       orientation="0,-78.000005"
       id="guide1386"
       inkscape:locked="true" />
  </sodipodi:namedview>
  <metadata
     id="metadata828">
    <rdf:RDF>
      <cc:Work
         rdf:about="">
        <dc:format>image/svg+xml</dc:format>
        <dc:type
           rdf:resource="http://purl.org/dc/dcmitype/StillImage" />
      </cc:Work>
    </rdf:RDF>
  </metadata>
  <g
     inkscape:label="Icon"
     inkscape:groupmode="layer"
     id="layer1"
     transform="translate(0,-274.42223)">
    <g
       id="g14860"
       style="display:inline;stroke-width:0.801876"
       transform="matrix(1.2470758,0,0,1.2470758,-75.348127,-74.111359)">
      <path
         style="color:#000000;fill:#349951;stroke-width:0.801876;stroke-linecap:round;stroke-linejoin:round;-inkscape-stroke:none"
         d="m 72.953125,280.75781 c -0.08762,0.29492 -0.205915,0.56576 -0.351563,0.81836 -0.06508,0.11268 -0.03858,0.25595 0.0625,0.33789 l 0.796875,0.64453 c 0.122655,0.10034 0.305399,0.0711 0.390625,-0.0625 0.205493,-0.32403 0.367615,-0.67957 0.484375,-1.07422 0.125414,-0.42385 -0.07985,-0.85706 -0.439453,-1.06835 -0.494592,-0.18531 -0.791602,-0.0425 -0.943359,0.40429 z"
         id="path47451"
         sodipodi:nodetypes="cccccscc" />
      <path
         id="path55838"
         style="color:#000000;fill:#26783f;fill-opacity:1;stroke-width:0.801876;stroke-linecap:round;stroke-linejoin:round;-inkscape-stroke:none"
         d="m 73.547967,280.2589 c -0.08173,7.6e-4 -0.162335,0.0175 -0.235644,0.0517 -0.0049,0.002 -0.0096,0.005 -0.01447,0.007 0.02368,0.0105 0.04676,0.0224 0.06925,0.0356 0.359603,0.21129 0.565179,0.6443 0.439766,1.06816 -0.112805,0.38128 -0.268361,0.72615 -0.464055,1.04128 l 0.11834,0.0956 a 0.26460996,0.26460996 0 0 0 0.390157,-0.0625 c 0.205491,-0.32403 0.367964,-0.67971 0.484725,-1.07435 0.125412,-0.42386 -0.08016,-0.85687 -0.439767,-1.06816 -0.106809,-0.0628 -0.228841,-0.0957 -0.3483,-0.0946 z" />
      <path
         style="color:#000000;fill:#50b86b;stroke-width:0.801876;stroke-linecap:round;stroke-linejoin:round;-inkscape-stroke:none"
         d="m 71.207031,282.11523 c -2.137852,2.44485 -4.777748,4.08368 -6.867187,4.56836 -1.117256,0.25918 -1.915502,0.66283 -2.376953,1.19336 -0.461451,0.53053 -0.538023,1.2227 -0.197266,1.83399 0.308099,0.5527 0.694448,1.07573 1.291016,1.41211 0.596567,0.33637 1.385763,0.47211 2.449218,0.3125 1.803174,-0.27065 3.409442,-0.91701 4.820313,-1.90821 0.0013,-6.6e-4 0.0026,-10e-4 0.0039,-0.002 2.573473,-1.88124 4.070362,-3.91647 3.931641,-6.00586 4e-5,-0.003 4e-5,-0.005 0,-0.008 -0.04436,-0.43742 -0.157576,-0.85042 -0.347657,-1.19141 -0.307722,-0.55202 -0.770628,-0.88051 -1.27734,-0.91006 -0.506712,-0.0295 -1.01509,0.2311 -1.429685,0.70522 z"
         id="path47643"
         sodipodi:nodetypes="ccssscccccscc" />
      <path
         style="color:#000000;fill:#349951;stroke-width:0.801876;stroke-linecap:round;stroke-linejoin:round;-inkscape-stroke:none"
         d="m 75.886719,282.92187 c -0.207385,-0.0573 -0.43344,-0.0199 -0.589844,0.11133 -0.156404,0.13121 -0.23267,0.3306 -0.238281,0.53907 -0.0087,0.32277 -0.05376,0.63204 -0.132813,0.92773 a 0.26460996,0.26460996 0 0 0 0.146485,0.30859 l 0.980468,0.4375 a 0.26460996,0.26460996 0 0 0 0.359375,-0.16211 c 0.119616,-0.3821 0.188117,-0.78539 0.199219,-1.21484 0.01179,-0.45523 -0.309969,-0.83284 -0.724609,-0.94727 z"
         id="path47259" />
      <path
         id="path49554"
         style="color:#000000;fill:#26783f;fill-opacity:1;stroke-width:0.801876;stroke-linecap:round;stroke-linejoin:round;-inkscape-stroke:none"
         d="m 75.689438,282.89594 c -0.08802,7.7e-4 -0.174265,0.0179 -0.252698,0.0517 0.375632,0.13815 0.656468,0.49561 0.64544,0.92139 -0.01111,0.42945 -0.07986,0.83281 -0.199472,1.21492 a 0.26460996,0.26460996 0 0 1 -0.03462,0.0708 l 0.204639,0.0915 a 0.26460996,0.26460996 0 0 0 0.359151,-0.16226 c 0.119616,-0.38211 0.18837,-0.78547 0.199472,-1.21492 0.0118,-0.45523 -0.309864,-0.8328 -0.724503,-0.94723 -0.06481,-0.0179 -0.131646,-0.0264 -0.197406,-0.0258 z" />
      <path
         id="path51199"
         style="fill:#349951;fill-opacity:1;stroke-width:0.801876;stroke-linecap:round;stroke-linejoin:round"
         d="m 73.991556,284.19453 c -0.330361,0.24953 -0.600525,0.59687 -0.798089,0.99895 -0.920915,1.87422 -2.133825,3.48498 -3.366719,4.66483 0.169119,-0.10576 0.335348,-0.21562 0.499194,-0.33073 0.0014,-6.5e-4 0.0027,-10e-4 0.0041,-0.002 1.322405,-0.9667 2.360617,-1.97413 3.038693,-3.00867 z"
         sodipodi:nodetypes="csccccc" />
      <path
         id="path53119"
         style="color:#000000;fill:#349951;fill-opacity:1;stroke-width:0.801876;stroke-linecap:round;stroke-linejoin:round;-inkscape-stroke:none"
         d="m 72.293265,281.43458 c 0.433102,0.0897 0.821716,0.40194 1.091406,0.88573 0.190079,0.34099 0.303422,0.75372 0.347782,1.19114 v 5.2e-4 5.2e-4 5.1e-4 5.2e-4 5.1e-4 5.2e-4 5.2e-4 5.1e-4 5.2e-4 5.1e-4 5.2e-4 5.2e-4 5.1e-4 5.2e-4 5.1e-4 5.2e-4 c 0.138721,2.0894 -1.35807,4.12461 -3.931545,6.00585 -0.0014,6.8e-4 -0.0027,0.001 -0.0041,0.002 -1.410872,0.9912 -3.016687,1.63725 -4.819862,1.9079 -0.198094,0.0297 -0.386784,0.0496 -0.566372,0.0594 0.328721,0.0192 0.692462,10e-4 1.095539,-0.0594 1.803175,-0.27065 3.408989,-0.9167 4.819861,-1.9079 0.0014,-6.5e-4 0.0027,-10e-4 0.0041,-0.002 2.573475,-1.88124 4.070265,-3.91645 3.931544,-6.00584 v -5.1e-4 -5.2e-4 -5.2e-4 -5.1e-4 -5.2e-4 -5.1e-4 -5.2e-4 -5.2e-4 -5.1e-4 -5.2e-4 -5.1e-4 -5.2e-4 -5.1e-4 -5.2e-4 -5.2e-4 -5.1e-4 c -0.149326,-1.49339 -1.007134,-2.24992 -1.968353,-2.07689 z"
         sodipodi:nodetypes="cscccccccccccccccccccccccccccccccccccccccccc" />
      <path
         style="color:#000000;fill:#50b86b;stroke-width:0.801876;stroke-linecap:round;stroke-linejoin:round;-inkscape-stroke:none"
         d="m 74.904297,284.33203 c -0.515626,0.10633 -0.954669,0.50268 -1.244141,1.0918 -1.499764,3.05229 -3.724944,5.42483 -5.708984,6.48242 -1.057729,0.56383 -1.753267,1.18814 -2.074219,1.8457 -0.320952,0.65757 -0.212162,1.37 0.294922,1.89258 0.460375,0.47445 0.990599,0.89658 1.681641,1.07422 0.691041,0.17764 1.520792,0.10097 2.550781,-0.34766 3.350421,-1.4593 5.584863,-4.11421 6.820312,-7.7539 0.213558,-0.62917 0.205827,-1.34814 0.05664,-2.01367 -0.149186,-0.66554 -0.438257,-1.28121 -0.847656,-1.70313 -0.458459,-0.47248 -1.013672,-0.67469 -1.529296,-0.56836 z"
         id="path47067" />
      <path
         id="path7635"
         style="color:#000000;fill:#87e59d;fill-opacity:1;stroke-width:0.801876;stroke-linecap:round;stroke-linejoin:round;-inkscape-stroke:none"
         d="m 75.631993,285.81248 a 0.2645835,0.2645835 0 0 0 -0.269751,0.25735 c -0.0057,0.29498 -0.05031,0.58034 -0.136425,0.83405 -1.198647,3.53126 -3.314271,6.03952 -6.529318,7.43986 -0.478042,0.20822 -0.891398,0.32325 -1.254186,0.36897 a 0.2645835,0.2645835 0 0 0 -0.230479,0.29662 0.2645835,0.2645835 0 0 0 0.295074,0.22893 c 0.42273,-0.0533 0.8875,-0.18599 1.402498,-0.41031 3.350422,-1.4593 5.582738,-4.11437 6.818188,-7.75405 0.106781,-0.31459 0.157787,-0.65085 0.164331,-0.99219 a 0.2645835,0.2645835 0 0 0 -0.259932,-0.26923 z m -1.513086,1.26607 a 0.2645835,0.2645835 0 0 0 -0.248563,0.13229 c -1.462765,2.56049 -3.413821,4.52976 -5.171779,5.46685 a 0.2645835,0.2645835 0 0 0 -0.107484,0.35915 0.2645835,0.2645835 0 0 0 0.357081,0.10956 c 1.884543,-1.00457 3.876268,-3.04 5.38107,-5.67407 a 0.2645835,0.2645835 0 0 0 -0.09767,-0.35916 0.2645835,0.2645835 0 0 0 -0.112654,-0.0346 z m 2.122868,0.41755 a 0.2645835,0.2645835 0 0 0 -0.2682,0.17931 c -1.198645,3.53125 -3.314271,6.039 -6.529319,7.43934 a 0.2645835,0.2645835 0 0 0 -0.136424,0.34779 0.2645835,0.2645835 0 0 0 0.349332,0.13694 c 3.350421,-1.4593 5.583256,-4.11437 6.818707,-7.75405 a 0.2645835,0.2645835 0 0 0 -0.1664,-0.3359 0.2645835,0.2645835 0 0 0 -0.0677,-0.0134 z" />
      <path
         id="path8745"
         style="color:#000000;fill:#87e59d;fill-opacity:1;stroke-width:0.801876;stroke-linecap:round;stroke-linejoin:round;-inkscape-stroke:none"
         d="m 70.959927,284.08387 c -1.98216,2.00032 -4.269729,3.33619 -6.121075,3.76566 -0.14151,0.0333 -0.229659,0.17451 -0.197403,0.31626 0.03253,0.1434 0.175742,0.23276 0.318844,0.19896 1.99108,-0.46188 4.332997,-1.84726 6.374805,-3.90777 0.10342,-0.10402 0.102478,-0.27232 -0.0021,-0.37518 -0.123353,-0.10211 -0.284441,-0.0835 -0.373071,0.002 z m 1.326534,0.0548 c -1.97838,2.96094 -4.548725,4.74876 -7.85947,5.24567 -0.144571,0.0215 -0.244302,0.1562 -0.222723,0.30076 0.02152,0.14457 0.156193,0.24431 0.300757,0.22273 3.456768,-0.51883 6.178693,-2.42 8.220686,-5.47616 0.07979,-0.12154 0.04656,-0.2847 -0.07441,-0.36535 -0.143495,-0.0847 -0.297343,-0.0282 -0.36484,0.0724 z"
         sodipodi:nodetypes="cccccccccccccc" />
      <path
         id="path47831"
         style="color:#000000;fill:#349951;fill-opacity:1;stroke-width:0.801876;stroke-linecap:round;stroke-linejoin:round;-inkscape-stroke:none"
         d="m 74.913259,284.33044 c 1.056979,0.29704 1.622894,1.34673 1.838648,2.27325 0.149185,0.66553 0.157231,1.38414 -0.05633,2.01331 -1.235451,3.63969 -3.469836,6.29475 -6.820258,7.75405 -0.579368,0.25236 -1.09547,0.38687 -1.559078,0.42478 0.592293,0.0501 1.27816,-0.0719 2.088245,-0.42478 3.350421,-1.4593 5.584807,-4.11436 6.820257,-7.75405 0.213559,-0.62917 0.205513,-1.34778 0.05633,-2.01331 -0.305285,-1.51831 -1.350834,-2.49258 -2.367814,-2.27325 z"
         sodipodi:nodetypes="cccsccscc" />
    </g>
  </g>
</svg>
