<?xml version="1.0" ?><svg data-name="Layer 1" height="200" id="Layer_1" viewBox="0 0 200 200" width="200" xmlns="http://www.w3.org/2000/svg"><defs><style>.cls-1{fill:#a4ce4e;}.cls-2{fill:#37a96d;}.cls-3{fill:#74c159;}.cls-4{fill:#77c45e;}.cls-5{fill:#b2d135;}.cls-6{fill:#72c158;}</style></defs><title/><path class="cls-1" d="M96.07,90.89,77.25,24.56l13.3-2,17.67,68.87Z"/><path class="cls-2" d="M98.73,91l.1-84.75,11.11.45-1.72,84.67Z"/><path class="cls-3" d="M112.52,91.55,122.75,17l-11.58-.45-8.26,74.57Z"/><path class="cls-4" d="M112.19,91.53,122.44,17,120.82,17,110.57,91.47Z"/><path class="cls-3" d="M103,173.21a4.07,4.07,0,0,0-1.64,1.92,3.66,3.66,0,0,0-4.73.09l-9,7.66a3.59,3.59,0,0,0-.2,5.06,3.65,3.65,0,0,0,5.06.19l5-4.25L97.27,190a3.58,3.58,0,1,0,7.16.29l.3-7.26c1.11,1.85,2.16,3.75,3.14,5.68a3.63,3.63,0,0,0,4.84,1.49,3.66,3.66,0,0,0,1.49-4.85,94.9,94.9,0,0,0-6.33-10.68,3.93,3.93,0,0,0-2.07-1.74A3.79,3.79,0,0,0,103,173.21Z"/><path class="cls-5" d="M112.52,91.55l2.13,78.26c-.22,5.49-6.45,9.77-13.83,9.48s-13.24-5-13-10.53l8.28-77.85Z"/><path class="cls-6" d="M99.43,179.17c.45.06.92.1,1.39.12,7.38.29,13.59-4,13.83-9.48l-2.13-78.26-2.77-.11,2.12,78.26c-.21,5.15-5.68,9.22-12.44,9.47Z"/></svg>