<?xml version="1.0" ?><svg enable-background="new 0 0 64 64" id="Filled_Outline_1_" version="1.1" viewBox="0 0 64 64" xml:space="preserve" xmlns="http://www.w3.org/2000/svg" xmlns:xlink="http://www.w3.org/1999/xlink"><title/><desc/><g><g><path d="M31.99,16.77c-4.63,2.16-8.25,6.13-9.94,11.01C22.01,27.19,22,26.6,22,26c0-4.07,1.28-7.84,3.47-10.94    C27.78,15.23,29.98,15.83,31.99,16.77z" fill="#EA3C55"/><path d="M40,15c-2.862,0-5.566,0.651-8,1.784C29.566,15.651,26.862,15,24,15C13.507,15,5,23.507,5,34    c0,14.924,8.498,27,19,27c2.86,0,5.569-0.901,8-2.506C34.431,60.099,37.14,61,40,61c10.502,0,19-12.076,19-27    C59,23.507,50.493,15,40,15z" fill="#EA8C8F"/><path d="M32,58.49C29.57,60.1,26.86,61,24,61C13.5,61,5,48.92,5,34c0-0.56,0.02-1.11,0.08-1.65    C5.91,46.17,14.06,57,24,57c1.74,0,3.43-0.33,5.03-0.96C29.95,56.98,30.95,57.81,32,58.49z M53.57,20.71    C55.12,23.46,56,26.63,56,30c0,14.92-8.5,27-19,27c-4.29,0-8.25-2.02-11.43-5.42C29.06,57.35,34.23,61,40,61    c10.5,0,19-12.08,19-27C59,28.83,56.93,24.13,53.57,20.71z M25.47,15.06C23.28,18.16,22,21.93,22,26c0,0.6,0.01,1.19,0.05,1.78    c1.69-4.88,5.31-8.85,9.94-11.01C29.98,15.83,27.78,15.23,25.47,15.06z" fill="#DE5D82"/><path d="M21.104,32C21.035,32.657,21,33.325,21,34" fill="#E6E6E6"/><path d="M44,7c-4.971,0-10,4.029-10,9h-2c0-7.18,4.82-13,12-13V7z" fill="#8C6239"/><path d="M44,11c0,1.55-0.44,2.99-1.2,4.21C41.89,15.07,40.95,15,40,15c-1.84,0-3.63,0.26-5.32,0.76    c0.41-0.91,0.97-1.73,1.66-2.42C37.79,11.9,39.79,11,42,11H44z M14,3c0,7.732,6.268,14,14,14h4v0c0-7.732-6.268-14-14-14L14,3    L14,3z" fill="#009245"/><path d="M42.76,15.2C41.86,15.07,40.94,15,40,15c-0.3,0-0.6,0.01-0.9,0.02c0.21-0.36,0.49-0.73,0.84-1.08    c1.17-1.17,2.6-1.65,3.18-1.06C43.57,13.32,43.4,14.26,42.76,15.2z M21.54,4.89c-0.78-0.78-1.63-1.4-2.48-1.85    C18.71,3.01,18.36,3,18,3h-4c0,3.1,1.01,5.97,2.73,8.3c2.45,2,5.3,2.53,6.7,1.13C24.99,10.87,24.15,7.49,21.54,4.89z" fill="#39B54A"/><path d="M38,22c0-2,2-5,7-4s9,7,6,12c-2.301,3.835-3-3-7-5C42,24,38,26.123,38,22z" fill="#F7C3B1"/></g><g><path d="M20.11,31.895C20.037,32.587,20,33.295,20,34h2c0-0.635,0.033-1.272,0.099-1.895L20.11,31.895z" fill="#28284B"/><path d="M44.3,14.478C44.758,13.382,45,12.199,45,11c0-0.552-0.447-1-1-1h-2c-2.139,0-4.172,0.783-5.771,2.12    C37.917,9.619,41.078,8,44,8c0.553,0,1-0.448,1-1V3c0-0.552-0.447-1-1-1c-5.786,0-10.448,3.677-12.22,9.085    C29.48,5.748,24.171,2,18,2h-4c-0.553,0-1,0.448-1,1c0,8.271,6.729,15,15,15h0.069c-3.786,2.824-6.588,6.949-7.625,11.791    l1.955,0.419C24.164,21.976,31.565,16,40,16c9.925,0,18,8.075,18,18c0,14.336-8.075,26-18,26c-5.39,0-10.455-3.461-13.899-9.496    l-1.736,0.991c1.629,2.854,3.605,5.183,5.81,6.919C28.202,59.462,26.132,60,24,60C14.075,60,6,48.336,6,34    c0-7.431,4.463-14.001,11.368-16.739l-0.736-1.859C8.958,18.444,4,25.744,4,34c0,15.439,8.972,28,20,28    c2.789,0,5.474-0.788,7.995-2.323C34.481,61.189,37.194,62,40,62c11.028,0,20-12.561,20-28C60,24.449,53.266,16.452,44.3,14.478z     M43,4.042v2.01c-4.684,0.477-9.521,4.225-9.957,9.22c-0.005,0.002-0.009,0.004-0.014,0.006C33.322,9.065,37.366,4.523,43,4.042z     M15.038,4H18c6.832,0,12.449,5.297,12.962,12H28C21.168,16,15.551,10.703,15.038,4z M36.867,14.261    C38.179,12.846,40.033,12,42,12h0.929c-0.107,0.745-0.34,1.464-0.677,2.136C41.512,14.052,40.762,14,40,14    C38.937,14,37.892,14.096,36.867,14.261z" fill="#28284B"/></g></g></svg>