<?xml version="1.0" encoding="UTF-8" standalone="no"?>
<!-- Created with Inkscape (http://www.inkscape.org/) -->

<svg
   xmlns:dc="http://purl.org/dc/elements/1.1/"
   xmlns:cc="http://creativecommons.org/ns#"
   xmlns:rdf="http://www.w3.org/1999/02/22-rdf-syntax-ns#"
   xmlns:svg="http://www.w3.org/2000/svg"
   xmlns="http://www.w3.org/2000/svg"
   xmlns:sodipodi="http://sodipodi.sourceforge.net/DTD/sodipodi-0.dtd"
   xmlns:inkscape="http://www.inkscape.org/namespaces/inkscape"
   width="8.8472233mm"
   height="8.1439676mm"
   viewBox="0 0 8.8472238 8.1439671"
   version="1.1"
   id="svg5889"
   inkscape:version="0.92.3 (2405546, 2018-03-11)"
   sodipodi:docname="vegetables-food.svg">
  <defs
     id="defs5883" />
  <sodipodi:namedview
     id="base"
     pagecolor="#ffffff"
     bordercolor="#666666"
     borderopacity="1.0"
     inkscape:pageopacity="0.0"
     inkscape:pageshadow="2"
     inkscape:zoom="3.06"
     inkscape:cx="78.057245"
     inkscape:cy="-0.16306897"
     inkscape:document-units="mm"
     inkscape:current-layer="layer1"
     showgrid="false"
     fit-margin-top="1"
     fit-margin-bottom="1"
     fit-margin-right="1"
     fit-margin-left="1"
     inkscape:window-width="1853"
     inkscape:window-height="1025"
     inkscape:window-x="67"
     inkscape:window-y="27"
     inkscape:window-maximized="1" />
  <metadata
     id="metadata5886">
    <rdf:RDF>
      <cc:Work
         rdf:about="">
        <dc:format>image/svg+xml</dc:format>
        <dc:type
           rdf:resource="http://purl.org/dc/dcmitype/StillImage" />
        <dc:title></dc:title>
      </cc:Work>
    </rdf:RDF>
  </metadata>
  <g
     inkscape:label="Capa 1"
     inkscape:groupmode="layer"
     id="layer1"
     transform="translate(-85.180689,-113.27553)">
    <g
       transform="matrix(0.35277777,0,0,-0.35277777,-7.0612737,208.0635)"
       id="g10025">
      <g
         transform="translate(269.1152,261.062)"
         id="g1334">
        <path
           inkscape:connector-curvature="0"
           id="path1336"
           style="fill:#e15325;fill-opacity:1;fill-rule:nonzero;stroke:none"
           d="m 0,0 c 0,0 -3.35,1.138 -4.58,-5.308 -1.229,-6.444 2.846,-7.547 4.58,-6.764" />
      </g>
      <g
         transform="translate(278.9102,261.062)"
         id="g1338">
        <path
           inkscape:connector-curvature="0"
           id="path1340"
           style="fill:#e15325;fill-opacity:1;fill-rule:nonzero;stroke:none"
           d="M 0,0 C 0,0 3.35,1.138 4.58,-5.308 5.809,-11.752 1.732,-12.855 0,-12.072" />
      </g>
      <g
         transform="translate(277.627,265.1914)"
         id="g1342">
        <path
           inkscape:connector-curvature="0"
           id="path1344"
           style="fill:#875224;fill-opacity:1;fill-rule:nonzero;stroke:none"
           d="M 0,0 C -0.199,0.698 -0.799,0.664 -0.799,0.664 -0.811,0.661 -0.822,0.656 -0.834,0.652 -0.74,0.557 -0.656,0.42 -0.602,0.229 c 0,0 0.766,-0.532 0.498,-1.13 0,0 -2.625,-0.893 -3.388,-2.921 0,0 -0.133,0.017 -0.313,0.061 0.379,-0.22 0.914,-0.29 0.914,-0.29 0.764,2.029 3.389,2.921 3.389,2.921 C 0.764,-0.533 0,0 0,0" />
      </g>
      <g
         transform="translate(277.5234,264.29)"
         id="g1346">
        <path
           inkscape:connector-curvature="0"
           id="path1348"
           style="fill:#a4703e;fill-opacity:1;fill-rule:nonzero;stroke:none"
           d="m 0,0 c 0.268,0.599 -0.498,1.13 -0.498,1.13 -0.055,0.191 -0.139,0.328 -0.232,0.424 -2.791,-0.816 -3.321,-4.016 -3.321,-4.016 0.041,-0.168 0.18,-0.299 0.35,-0.398 0.18,-0.044 0.312,-0.061 0.312,-0.061 C -2.625,-0.893 0,0 0,0" />
      </g>
      <g
         transform="translate(271.9746,261.3618)"
         id="g1350">
        <path
           inkscape:connector-curvature="0"
           id="path1352"
           style="fill:#e86624;fill-opacity:1;fill-rule:nonzero;stroke:none"
           d="m 0,0 c 0,0 -1.758,1.57 -3.453,-1.055 -1.693,-2.625 -2.358,-10.367 0.799,-11.397 0,0 1.771,-0.436 2.33,0.631" />
      </g>
      <g
         transform="translate(276.0508,261.3618)"
         id="g1354">
        <path
           inkscape:connector-curvature="0"
           id="path1356"
           style="fill:#e86624;fill-opacity:1;fill-rule:nonzero;stroke:none"
           d="m 0,0 c 0,0 1.758,1.57 3.453,-1.055 1.692,-2.625 2.358,-10.367 -0.801,-11.397 0,0 -1.771,-0.436 -2.33,0.631" />
      </g>
      <g
         transform="translate(274.2187,261.2734)"
         id="g1358">
        <path
           inkscape:connector-curvature="0"
           id="path1360"
           style="fill:#f06022;fill-opacity:1;fill-rule:nonzero;stroke:none"
           d="m 0,0 c 0,0 -3.549,0.505 -4.172,-3.079 -0.619,-3.582 -0.629,-9.337 4.465,-9.155 5.119,0.182 3.658,9.051 3.658,9.051 0,0 -0.588,3.207 -3.951,3.183" />
      </g>
      <g
         transform="translate(274.2051,261.8662)"
         id="g1362">
        <path
           inkscape:connector-curvature="0"
           id="path1364"
           style="fill:#f6911e;fill-opacity:1;fill-rule:nonzero;stroke:none"
           d="m 0,0 c 0,0 -3.225,0.553 -3.789,-3.377 -0.565,-3.93 -0.57,-10.242 4.055,-10.045 4.65,0.202 3.324,9.93 3.324,9.93 0,0 -0.533,3.518 -3.59,3.492" />
      </g>
      <g
         transform="translate(273.1035,259.1357)"
         id="g1366">
        <path
           inkscape:connector-curvature="0"
           id="path1368"
           style="fill:#f89f4f;fill-opacity:1;fill-rule:nonzero;stroke:none"
           d="m 0,0 c -0.703,-0.608 -1.545,-0.787 -1.879,-0.401 -0.334,0.386 -0.035,1.193 0.668,1.8 0.705,0.608 1.545,0.788 1.879,0.4 C 1,1.414 0.701,0.607 0,0" />
      </g>
      <g
         transform="translate(270.123,260.1914)"
         id="g1370">
        <path
           inkscape:connector-curvature="0"
           id="path1372"
           style="fill:#f6911e;fill-opacity:1;fill-rule:nonzero;stroke:none"
           d="m 0,0 c -0.414,-0.358 -0.908,-0.463 -1.105,-0.236 -0.196,0.228 -0.02,0.702 0.394,1.06 0.412,0.357 0.906,0.462 1.104,0.235 C 0.59,0.832 0.414,0.357 0,0" />
      </g>
    </g>
  </g>
</svg>
