<svg width="20" height="20" viewBox="0 0 20 20" xmlns="http://www.w3.org/2000/svg">
<path d="M19.598 9.064C19.355 8.88 19.04 8.817 18.744 8.892C18.458 8.966 18.222 9 18 9C16.346 9 15 7.654 14.997 6.062C15.002 6.028 15.013 5.928 15.014 5.894C15.027 5.577 14.888 5.273 14.641 5.075C14.394 4.877 14.067 4.805 13.76 4.888C13.467 4.964 13.226 5 13 5C11.346 5 10 3.654 10 2C10 1.783 10.031 1.556 10.099 1.284C10.177 0.969 10.097 0.636 9.885 0.39C9.674 0.145 9.364 0.0210001 9.032 0.0480001C3.883 0.544 0 4.822 0 10C0 15.514 4.486 20 10 20C15.514 20 20 15.514 20 10C20 9.951 19.997 9.903 19.993 9.84C19.986 9.535 19.841 9.249 19.598 9.064ZM6.5 4C7.328 4 8 4.671 8 5.5C8 6.329 7.328 7 6.5 7C5.672 7 5 6.329 5 5.5C5 4.671 5.672 4 6.5 4ZM4.5 12C3.672 12 3 11.329 3 10.5C3 9.671 3.672 9 4.5 9C5.328 9 6 9.671 6 10.5C6 11.329 5.328 12 4.5 12ZM7.5 16C6.672 16 6 15.329 6 14.5C6 13.671 6.672 13 7.5 13C8.328 13 9 13.671 9 14.5C9 15.329 8.328 16 7.5 16ZM10 9.5C10 8.671 10.672 8 11.5 8C12.328 8 13 8.671 13 9.5C13 10.329 12.328 11 11.5 11C10.672 11 10 10.329 10 9.5ZM13.5 16C12.672 16 12 15.329 12 14.5C12 13.671 12.672 13 13.5 13C14.328 13 15 13.671 15 14.5C15 15.329 14.328 16 13.5 16Z" />
</svg>
