<svg width="20" height="20" viewBox="0 0 20 20" xmlns="http://www.w3.org/2000/svg">
<path d="M10 0C4.486 0 0 4.486 0 10C0 15.514 4.486 20 10 20C15.514 20 20 15.514 20 10C20 4.486 15.514 0 10 0ZM10 18C5.589 18 2 14.411 2 10C2 8.832 2.258 7.725 2.709 6.724C2.863 6.814 3.017 6.906 3.165 7C3.561 7.25 3.956 7.5 4.451 7.688C4.945 7.875 5.539 8 6.33 8C7.122 8 7.716 7.875 8.211 7.687C8.706 7.499 9.102 7.25 9.498 7C9.894 6.75 10.29 6.5 10.785 6.312C11.279 6.125 11.873 6 12.665 6C13.457 6 14.051 6.125 14.545 6.313C15.04 6.5 15.436 6.75 15.832 7C16.228 7.25 16.624 7.5 17.119 7.688C17.297 7.755 17.493 7.81 17.7 7.859C17.891 8.541 18 9.257 18 10C18 14.411 14.411 18 10 18Z" />
</svg>
